<?xml version="1.0"?>
<svg xmlns="http://www.w3.org/2000/svg" xmlns:xlink="http://www.w3.org/1999/xlink" xmlns:svgjs="http://svgjs.com/svgjs" version="1.1" width="512" height="512" x="0" y="0" viewBox="0 0 512 512" style="enable-background:new 0 0 512 512" xml:space="preserve" class=""><g transform="matrix(1.8369701987210297e-16,-1,-1,-1.8369701987210297e-16,511.9999999999999,512)"><linearGradient xmlns="http://www.w3.org/2000/svg" id="SVGID_1_" gradientUnits="userSpaceOnUse" x1="256" x2="256" y1="449.463" y2="62.531"><stop stop-opacity="1" stop-color="#ffbef9" offset="0"/><stop stop-opacity="1" stop-color="#fff1ff" offset="1"/></linearGradient><linearGradient xmlns="http://www.w3.org/2000/svg" id="SVGID_2_" gradientUnits="userSpaceOnUse" x1="256" x2="256" y1="512" y2="0"><stop stop-opacity="1" stop-color="#dd3d84" offset="0"/><stop stop-opacity="1" stop-color="#ff81ff" offset="1"/></linearGradient><g xmlns="http://www.w3.org/2000/svg"><g><g><path d="m139.325 75.692c-17.549-17.549-46.084-17.549-63.633 0s-17.549 46.084 0 63.633l21.211 21.211c17.549 17.549 46.102 17.531 63.633 0 17.549-17.549 17.549-46.084 0-63.633zm275.772 275.772c-17.549-17.549-46.084-17.549-63.633 0s-17.549 46.084 0 63.633l21.211 21.211c17.549 17.549 46.102 17.531 63.633 0 17.549-17.549 17.549-46.084 0-63.633zm-318.194 0-21.211 21.211c-17.549 17.549-17.549 46.084 0 63.633s46.102 17.531 63.633 0l21.211-21.211c17.549-17.549 17.549-46.084 0-63.633s-46.084-17.549-63.633 0zm318.194-190.928 21.211-21.211c17.549-17.549 17.549-46.084 0-63.633s-46.084-17.549-63.633 0l-21.211 21.211c-17.549 17.549-17.549 46.084 0 63.633s46.101 17.531 63.633 0z" fill="url(#SVGID_1_)" data-original="url(#SVGID_1_)" style=""/></g></g><g><g><path d="m256 0c-24.814 0-45 20.186-45 45v30c0 24.814 20.186 45 45 45s45-20.186 45-45v-30c0-24.814-20.186-45-45-45zm0 392c-24.814 0-45 20.186-45 45v30c0 24.814 20.186 45 45 45s45-20.186 45-45v-30c0-24.814-20.186-45-45-45zm-181-181h-30c-24.814 0-45 20.186-45 45s20.186 45 45 45h30c24.814 0 45-20.186 45-45s-20.186-45-45-45zm392 0h-30c-24.814 0-45 20.186-45 45s20.186 45 45 45h30c24.814 0 45-20.186 45-45s-20.186-45-45-45z" fill="url(#SVGID_2_)" data-original="url(#SVGID_2_)" style=""/></g></g></g></g></svg>
